#N canvas 732 227 450 300 10;
#X declare -path ./rc-patches/rc/;
#X declare -path ./rjlib/rj/;
#X declare -path ./blockhead/;
#X obj 11 12 declare -path ./rc-patches/rc/;
#N canvas 568 432 450 300 snare 0;
#X obj 15 210 s_808snare \$0/808snare;
#X msg 323 42 snappy \$1;
#X msg 307 158 tune \$1;
#X obj 15 232 *~ 1;
#X obj 15 254 throw~ \$1/sd;
#X obj 15 177 r \$1/sd/trigger;
#X msg 204 54 tone \$1;
#X obj 204 32 r \$1/sd/tone;
#X obj 323 20 r \$1/sd/snappy;
#X obj 307 136 r \$1/sd/tune;
#X connect 0 0 3 0;
#X connect 1 0 0 1;
#X connect 2 0 0 1;
#X connect 3 0 4 0;
#X connect 5 0 0 0;
#X connect 6 0 0 1;
#X connect 7 0 6 0;
#X connect 8 0 1 0;
#X connect 9 0 2 0;
#X restore 11 129 pd snare;
#N canvas 242 83 581 441 bassdrum 0;
#X text 89 345 output lvl = vel/127 * amp;
#X obj 49 344 *~ 1;
#X obj 49 366 throw~ \$1/bd;
#X obj 160 113 r \$1/bd/tone;
#X msg 160 135 tone \$1;
#X obj 49 142 r \$1/bd/note;
#X obj 49 164 unpack f f;
#X obj 49 188 swap;
#X obj 70 212 / 127;
#X msg 70 234 tune \$1;
#X obj 175 166 r \$1/bd/decay;
#X msg 175 188 decay \$1;
#X obj 49 288 s_808bass \$0/808bass;
#X obj 51 31 r \$1/bd/trigger;
#X obj 51 75 s \$1/bd/note;
#X msg 51 53 64 127;
#X obj 219 21 u_tablemap 16 \$1/bd/trigger/r \$1/bd/trigger \$0/bd/trigger
\$0/bd/trigger;
#X connect 1 0 2 0;
#X connect 3 0 4 0;
#X connect 4 0 12 1;
#X connect 5 0 6 0;
#X connect 6 0 7 0;
#X connect 6 1 7 1;
#X connect 7 0 12 0;
#X connect 7 1 8 0;
#X connect 8 0 9 0;
#X connect 9 0 12 1;
#X connect 10 0 11 0;
#X connect 11 0 12 1;
#X connect 12 0 1 0;
#X connect 13 0 15 0;
#X connect 15 0 14 0;
#X restore 11 106 pd bassdrum;
#N canvas 70 123 450 300 hat 1;
#X obj 14 230 *~ 1;
#X obj 14 208 s_808hihat \$0/808hihat;
#X obj 14 174 r \$1/hh/trigger;
#X obj 14 252 throw~ \$1/hh;
#X msg 203 184 tune \$1;
#X msg 141 139 decay \$1;
#X obj 141 116 r \$1/hh/decay;
#X obj 203 162 r \$1/hh/tune;
#X connect 0 0 3 0;
#X connect 1 0 0 0;
#X connect 2 0 1 0;
#X connect 4 0 1 2;
#X connect 5 0 1 2;
#X connect 6 0 5 0;
#X connect 7 0 4 0;
#X restore 11 152 pd hat;
#N canvas 2 48 450 300 cowbell 0;
#X restore 11 175 pd cowbell;
#X obj 11 35 declare -path ./rjlib/rj/;
#N canvas 718 125 450 300 mixer 0;
#X obj 8 14 catch~ \$1/bd;
#X obj 184 14 catch~ \$1/hh;
#X obj 97 14 catch~ \$1/sd;
#X obj 272 14 catch~ \$1/cb;
#X obj 361 14 catch~ \$1/cl;
#X obj 215 222 dac~;
#X obj 215 191 +~;
#X connect 0 0 6 0;
#X connect 1 0 6 0;
#X connect 2 0 6 0;
#X connect 6 0 5 0;
#X connect 6 0 5 1;
#X restore 381 56 pd mixer;
#X obj 11 59 declare -path ./blockhead/;
