#N canvas 224 49 450 324 10;
#X obj 12 178 random 255;
#X obj 12 200 / 255;
#X obj 34 152 tabread \$1-prob;
#X obj 12 37 t b 0;
#X obj 12 106 f;
#X obj 40 106 + 1;
#X obj 12 15 r \$1-makeloop;
#X obj 12 222 <;
#X obj 12 127 t b f f;
#X obj 12 85 until;
#X obj 12 63 16;
#X obj 56 37 r loop-length;
#X obj 90 179 inlet;
#X text 137 181 seed;
#X obj 12 267 pack f f;
#X obj 12 245 swap;
#X obj 12 289 s \$1-loop;
#X connect 0 0 1 0;
#X connect 1 0 7 0;
#X connect 2 0 7 1;
#X connect 3 0 10 0;
#X connect 3 1 4 1;
#X connect 4 0 5 0;
#X connect 4 0 8 0;
#X connect 5 0 4 1;
#X connect 6 0 3 0;
#X connect 7 0 15 0;
#X connect 8 0 0 0;
#X connect 8 1 2 0;
#X connect 8 2 15 1;
#X connect 9 0 4 0;
#X connect 10 0 9 0;
#X connect 11 0 10 1;
#X connect 12 0 0 0;
#X connect 14 0 16 0;
#X connect 15 0 14 0;
#X connect 15 1 14 1;
