#N canvas 344 180 450 300 10;
#X obj 13 28 loadbang;
#X msg 13 50 bang;
#X obj 71 28 r \$1-randomize;
#X obj 101 105 t l;
#X obj 13 126 sel 0;
#X obj 40 148 t a b;
#X obj 67 171 random 1000;
#X obj 40 219 list append;
#X obj 40 240 list prepend \$1;
#X msg 40 261 \; 808/\$1/\$2 \$3;
#X obj 13 105 list split 1;
#X obj 13 77 list append \$2 \$3 \$4 \$5 \$6 \$7 \$8 \$9 \$10 \$11
\$12 \$13 \$14 \$15;
#X obj 67 193 / 1000;
#X connect 0 0 1 0;
#X connect 1 0 11 0;
#X connect 2 0 1 0;
#X connect 3 0 10 0;
#X connect 4 1 5 0;
#X connect 5 0 7 0;
#X connect 5 1 6 0;
#X connect 6 0 12 0;
#X connect 7 0 8 0;
#X connect 8 0 9 0;
#X connect 10 0 4 0;
#X connect 10 1 3 0;
#X connect 11 0 10 0;
#X connect 12 0 7 1;
